<?xml version="1.0" encoding="utf-8"?>
<!-- Generator: Adobe Illustrator 23.0.1, SVG Export Plug-In . SVG Version: 6.00 Build 0)  -->
<svg version="1.1" id="Layer_1" xmlns="http://www.w3.org/2000/svg" xmlns:xlink="http://www.w3.org/1999/xlink" x="0px" y="0px"
	 viewBox="0 0 1000.08 1000.08" style="enable-background:new 0 0 1000.08 1000.08;" xml:space="preserve">
<style type="text/css">
	.st0{fill:#FFFFFF;}
</style>
<path class="st0" d="M305.14,340.57l363.03,342.7L476.31,885.43c-43,45.31-101.33,71.17-164.25,72.81
	c-62.92,1.66-122.52-21.13-167.83-64.13l-21.36-20.27c-45.31-43-71.17-101.33-72.81-164.25c-1.64-62.92,21.13-122.52,64.13-167.83
	L305.14,340.57z M946.74,289.51c-1.64-62.92-27.5-121.25-72.81-164.25l-21.36-20.27C808.79,63.44,751.67,40.77,691.1,40.77
	c-2.12,0-4.24,0.03-6.36,0.08c-62.92,1.64-121.25,27.5-164.25,72.81L326.93,317.61l363.03,342.7L882.6,457.34
	C925.6,412.03,948.38,352.43,946.74,289.51z"/>
</svg>
